<svg width="2108" height="334" viewBox="0 0 2108 334" fill="none" xmlns="http://www.w3.org/2000/svg">
<path d="M2108 0.117188H2031.11V130.917L2000 168.753L1968.76 130.917V0.117188H1891.88V158.663L1961.55 242.86V333.062H2038.32V242.86L2108 158.663V0.117188Z" fill="white"/>
<path d="M1016.96 1.94141H1093.73V333.804H1016.96V1.94141Z" fill="white"/>
<path d="M1748.48 331.744H1671.6V38.4348L1710.04 0H1853V76.8696H1748.48V331.744Z" fill="white"/>
<path d="M1500.5 256.433V206.227H1584.72V129.477H1500.5V76.9887L1530.29 76.8696L1619.44 77.2332L1619.68 0.360575L1530.41 0L1461.81 0.360575L1423.61 38.7954V294.748L1462.06 333.183H1530.05L1619.44 333.544L1619.68 256.796L1530.18 256.433H1500.5Z" fill="white"/>
<path d="M1288.12 210.874L1256.89 248.591L1225.65 210.874V1.76562H1148.89V238.382L1226.98 333.027H1286.8L1364.89 238.382V1.76562H1288.12V210.874Z" fill="white"/>
<path d="M157.859 257.253H77.1279V77.0878H157.859V257.253ZM128.185 1.05859H0V334H196.18L234.385 295.565V39.4934L195.942 1.05859H128.185Z" fill="white"/>
<path d="M390.649 76.8696L479.791 77.2332L480.152 0.360575L390.771 0L322.174 0.360575L283.969 38.7954V294.748L322.415 333.183H390.41L479.791 333.544L480.152 256.796L390.649 256.433H360.858V206.227H445.071V129.477H360.858V76.9887L390.649 76.8696Z" fill="white"/>
<path d="M600.306 1.05859H523.539V295.205L561.982 333.52H704.826V256.773H600.306V1.05859Z" fill="white"/>
<path d="M888.175 1.77974V129.454H819.22V1.05859H742.453V333.762H819.22V206.204H888.175V333.762H965.065V1.77974H888.175Z" fill="white"/>
<path d="M0.476562 257.277H77.0024V333.786H0.476562V257.277Z" fill="#ED4136"/>
<path d="M2031.38 0.121094H2107.91V76.6331H2031.38V0.121094Z" fill="#ED4136"/>
</svg>
